<?xml version="1.0" encoding="UTF-8"?>
<svg version="1.1" xmlns="http://www.w3.org/2000/svg" width="512" height="512">
<path d="M0 0 C168.96 0 337.92 0 512 0 C512 168.96 512 337.92 512 512 C343.04 512 174.08 512 0 512 C0 343.04 0 174.08 0 0 Z " fill="#09090C" transform="translate(0,0)"/>
<path d="M0 0 C11.85834824 -0.37669467 21.9976623 3.37144812 31 11 C31.64582031 11.5465625 32.29164063 12.093125 32.95703125 12.65625 C40.6525503 19.76496477 46.85118347 30.11667033 47.43359375 40.734375 C47.45721339 42.40608365 47.45786961 44.07824859 47.4375 45.75 C47.42920166 46.63034912 47.42090332 47.51069824 47.41235352 48.41772461 C47.08768713 60.98959286 42.57332506 72.14892881 33.78125 81.3125 C33.1934375 81.869375 32.605625 82.42625 32 83 C33.56641751 87.30764815 35.68336156 91.06171464 38 95 C36.06372231 95.10807131 34.12572244 95.1856225 32.1875 95.25 C31.10855469 95.29640625 30.02960938 95.3428125 28.91796875 95.390625 C26 95 26 95 24.11328125 92.984375 C23.74589844 92.32953125 23.37851562 91.6746875 23 91 C20.15408131 91.38458361 17.42040029 91.86694402 14.6796875 92.734375 C1.42737808 96.92764305 -10.38268799 95.91488552 -22.65234375 89.64453125 C-31.45254427 84.70847893 -37.21543699 78.8022631 -41.33984375 69.6015625 C-41.71049454 68.80833588 -42.08114532 68.01510925 -42.46302795 67.19784546 C-43.63564996 64.67996967 -44.78696214 62.15303113 -45.9375 59.625 C-46.70365944 57.96939482 -47.47122863 56.31444128 -48.24023438 54.66015625 C-49.75607197 51.39436365 -51.26389709 48.12506652 -52.76513672 44.85253906 C-56.12304223 37.543212 -59.56309703 30.27242338 -63 23 C-64.32 23 -65.64 23 -67 23 C-75.23792575 40.38609245 -83.41773772 57.79585039 -91.375 75.3125 C-91.69687286 76.02018524 -92.01874573 76.72787048 -92.35037231 77.45700073 C-96.33377335 86.16032397 -96.33377335 86.16032397 -100 95 C-103.3 95 -106.6 95 -110 95 C-109.3388822 90.62809195 -107.7649416 86.83425938 -105.96484375 82.83203125 C-105.65450699 82.1321962 -105.34417023 81.43236115 -105.02442932 80.71131897 C-104.00107116 78.40916167 -102.96965401 76.11072579 -101.9375 73.8125 C-101.21871484 72.20265242 -100.49996535 70.59278891 -99.78125 68.98291016 C-94.16882227 56.44865897 -88.36000688 44.0107731 -82.47412109 31.60302734 C-78.57080727 23.37119052 -74.73901289 15.11587608 -71.1171875 6.75537109 C-69.09129077 2.09129077 -69.09129077 2.09129077 -68 1 C-66.00041636 0.95919217 -63.99954746 0.95745644 -62 1 C-53.59576691 18.20828078 -45.24444477 35.4330592 -37.2512207 52.83691406 C-28.57124458 72.56317783 -28.57124458 72.56317783 -11.05859375 84.15234375 C-1.28722482 86.8603732 8.86090746 85.01835586 18 81 C26.84346536 75.76286534 33.09136541 68.08234435 36.296875 58.31640625 C38.59190494 47.49151502 38.37646092 37.09555831 32.62890625 27.4140625 C32.09136719 26.61742187 31.55382812 25.82078125 31 25 C30.61714844 24.38898438 30.23429688 23.77796875 29.83984375 23.1484375 C24.69676845 15.95919245 14.3097993 11.10584111 5.7265625 9.6015625 C3.82317829 9.35445648 1.91175234 9.17069217 0 9 C0 6.03 0 3.06 0 0 Z " fill="#EEEBE2" transform="translate(384,208)"/>
<path d="M0 0 C10.67419698 -0.02312328 21.34838806 -0.04091501 32.02260494 -0.05181217 C36.97853922 -0.05704103 41.93445642 -0.06413874 46.89038086 -0.07543945 C51.66898836 -0.08626822 56.44757938 -0.09227681 61.2261982 -0.09487724 C63.05353619 -0.09673151 64.88087324 -0.10035216 66.70820427 -0.10573006 C69.25853329 -0.11294036 71.80879337 -0.11399095 74.35913086 -0.11352539 C75.12229614 -0.11712067 75.88546143 -0.12071594 76.67175293 -0.12442017 C81.88594784 -0.11405216 81.88594784 -0.11405216 83 1 C83.41015625 3.16796875 83.41015625 3.16796875 83 6 C81.20859029 8.29735794 79.47834544 10.26441431 77.4375 12.3125 C76.32480033 13.47066238 75.21281723 14.62951363 74.1015625 15.7890625 C73.56305664 16.34368164 73.02455078 16.89830078 72.46972656 17.46972656 C70.6885691 19.32426061 68.99034681 21.23928924 67.3125 23.1875 C64.79297735 26.10355769 62.21978018 28.96315447 59.625 31.8125 C56.57141133 35.18940982 53.65570795 38.63217132 50.8125 42.1875 C46.50787574 47.51739378 41.86803342 52.46716338 37.16455078 57.44091797 C32.16478785 62.75511435 27.58456288 68.32061613 23 74 C20.03 77.3 17.06 80.6 14 84 C36.77 84.33 59.54 84.66 83 85 C83 88.3 83 91.6 83 95 C72.36038199 95.06944598 61.72081771 95.12278376 51.0810194 95.15543652 C46.14076431 95.17110654 41.20066403 95.19236918 36.26049805 95.22631836 C31.49483527 95.25886417 26.7293216 95.27684294 21.96355629 95.28463173 C20.14343225 95.29018384 18.32331657 95.30102552 16.50325584 95.31719017 C13.95796309 95.33890112 11.41329006 95.34196961 8.86791992 95.34057617 C8.11194519 95.351362 7.35597046 95.36214783 6.5770874 95.3732605 C1.4873766 95.34301933 1.4873766 95.34301933 -0.95927429 93.62104797 C-2.55253246 91.13936822 -2.55541255 89.91069586 -2 87 C-0.30178524 84.62605581 1.35658361 82.57671846 3.3125 80.4375 C3.85430908 79.82543701 4.39611816 79.21337402 4.9543457 78.58276367 C9.36738188 73.62026437 13.88868208 68.75367042 18.40234375 63.8828125 C21.73054415 60.18926078 24.82816294 56.33241506 27.9453125 52.4609375 C30.26134933 49.68697704 32.73420979 47.17468686 35.328125 44.6640625 C37.72827169 42.27513145 39.9155797 39.7207557 42.125 37.15625 C44.17359094 34.80037042 46.27203002 32.4949254 48.375 30.1875 C52.40146194 25.73430193 56.20625054 21.13208038 59.95703125 16.4453125 C61.84524152 14.18523673 63.91753986 12.08246014 66 10 C33.33 9.505 33.33 9.505 0 9 C0 6.03 0 3.06 0 0 Z " fill="#EDEAE1" transform="translate(83,208)"/>
<path d="M0 0 C1.9375 0.125 1.9375 0.125 4 1 C6.37436161 3.79775215 7.91519523 6.69274671 9.42578125 10.0234375 C9.8851709 11.02858398 10.34456055 12.03373047 10.81787109 13.06933594 C11.31109863 14.16020508 11.80432617 15.25107422 12.3125 16.375 C13.39386148 18.74249353 14.47592005 21.10966877 15.55859375 23.4765625 C15.83930725 24.09168701 16.12002075 24.70681152 16.40924072 25.34057617 C19.23972259 31.53962682 22.11844122 37.7157731 25.00515747 43.88879395 C25.87642454 45.75304809 26.74593052 47.61811439 27.61499023 49.48339844 C30.38921258 55.43449446 33.17532937 61.37944619 35.99337769 67.30993652 C37.30842655 70.07917388 38.61786676 72.85104557 39.92681885 75.62316895 C40.55433127 76.9479937 41.18462291 78.27150595 41.81781006 79.59362793 C42.69533391 81.42631915 43.56274812 83.26384072 44.4296875 85.1015625 C44.92710449 86.14650879 45.42452148 87.19145508 45.93701172 88.26806641 C47 91 47 91 47 95 C44.03 95 41.06 95 38 95 C32.5671217 84.25082083 27.29394373 73.43460325 22.14550781 62.54638672 C21.00351102 60.13242163 19.8573875 57.72044651 18.7109375 55.30859375 C17.95279134 53.70849138 17.19497709 52.10823171 16.4375 50.5078125 C16.06737793 49.72843323 15.69725586 48.94905396 15.31591797 48.14605713 C13.39502465 44.07237677 11.54855589 39.98056347 9.796875 35.83105469 C9.44181885 34.99831024 9.0867627 34.1655658 8.72094727 33.30758667 C8.04676538 31.7155626 7.38515549 30.11813851 6.73803711 28.5149231 C5.76082579 26.11841954 5.76082579 26.11841954 4 23 C1.95189434 22.2450077 1.95189434 22.2450077 0 22 C-5.36530133 32.55687745 -10.45568202 43.20060544 -15.3125 54 C-16.28509028 56.15292938 -17.25879371 58.30535327 -18.23249817 60.45777893 C-18.8817883 61.89334975 -19.53070743 63.32908843 -20.179245 64.76499939 C-23.24079695 71.54212329 -26.33474821 78.30413306 -29.4375 85.0625 C-29.90389893 86.07892578 -30.37029785 87.09535156 -30.85083008 88.14257812 C-31.90007191 90.42860646 -32.94995096 92.71434232 -34 95 C-37.3 95 -40.6 95 -44 95 C-43.34254251 90.18022173 -41.40133205 86.19336303 -39.34375 81.84375 C-38.96928741 81.04054825 -38.59482483 80.2373465 -38.20901489 79.4098053 C-36.97757047 76.77088538 -35.73875625 74.13549443 -34.5 71.5 C-33.20684351 68.73364093 -31.91558875 65.96639931 -30.62442017 63.19911194 C-29.73977184 61.3034238 -28.8544907 59.40803086 -27.96859741 57.51292419 C-24.99872351 51.15650722 -22.0548219 44.78871106 -19.1328125 38.41015625 C-18.74917542 37.57281952 -18.36553833 36.73548279 -17.97027588 35.87277222 C-16.49855117 32.65882513 -15.02777368 29.44444978 -13.55932617 26.22900391 C-2.90476632 2.90476632 -2.90476632 2.90476632 0 0 Z " fill="#EEEAE2" transform="translate(221,208)"/>
</svg>
